<?xml version="1.0" standalone="no"?>
<!DOCTYPE svg PUBLIC "-//W3C//DTD SVG 20010904//EN"
 "http://www.w3.org/TR/2001/REC-SVG-20010904/DTD/svg10.dtd">
<svg version="1.0" xmlns="http://www.w3.org/2000/svg"
 width="512.000000pt" height="512.000000pt" viewBox="0 0 512.000000 512.000000"
 preserveAspectRatio="xMidYMid meet">

<g transform="translate(0.000000,512.000000) scale(0.100000,-0.100000)"
fill="#000000" stroke="none">
<path d="M2355 5110 c-618 -55 -1158 -304 -1591 -735 -77 -77 -167 -174 -200
-215 -294 -374 -476 -801 -540 -1271 -21 -150 -23 -478 -5 -624 52 -415 189
-785 417 -1125 343 -513 854 -882 1449 -1045 494 -135 1032 -117 1516 51 742
258 1340 866 1584 1609 90 274 128 511 128 805 0 383 -74 725 -231 1069 -360
789 -1123 1353 -1983 1465 -148 20 -415 27 -544 16z m-124 -1049 l39 -32 39
31 c67 55 151 49 211 -15 18 -19 20 -27 11 -44 -15 -26 -37 -27 -76 -1 -48 32
-73 26 -125 -30 -25 -27 -53 -50 -62 -50 -9 0 -32 20 -52 45 -47 57 -76 65
-131 35 -66 -36 -110 -4 -64 47 57 62 143 67 210 14z m716 -22 c15 -5 40 -22
55 -36 l28 -27 22 21 c65 59 137 66 204 21 39 -26 51 -52 34 -73 -17 -20 -40
-18 -70 5 -44 34 -78 26 -130 -30 -25 -27 -52 -50 -59 -50 -7 0 -34 23 -60 50
-53 56 -78 62 -126 30 -38 -25 -61 -25 -74 -2 -13 25 9 56 57 82 42 22 78 25
119 9z m-1023 -335 c20 -20 23 -203 4 -222 -7 -7 -38 -12 -70 -12 l-58 0 0
-202 0 -202 48 -44 c122 -115 308 -199 517 -232 101 -17 314 -14 419 5 168 30
326 97 444 188 95 73 92 62 92 288 l0 199 -58 0 c-32 0 -63 5 -70 12 -19 19
-16 202 4 222 13 14 52 16 272 16 320 0 302 8 302 -129 0 -62 -4 -101 -12
-109 -7 -7 -38 -12 -70 -12 l-58 0 0 -149 c0 -147 0 -150 31 -207 80 -153 200
-203 350 -145 55 21 89 20 89 -3 4 -102 -1 -720 -5 -727 -4 -5 -105 -9 -236
-9 l-229 0 0 -480 0 -480 60 0 c75 0 80 -8 80 -129 0 -68 -4 -93 -16 -105 -13
-14 -52 -16 -275 -16 -160 0 -268 4 -280 10 -17 10 -19 22 -19 113 0 67 4 107
12 115 7 7 38 12 70 12 l58 0 0 480 0 480 -760 0 -760 0 0 -480 0 -480 58 0
c32 0 63 -5 70 -12 8 -8 12 -48 12 -115 0 -91 -2 -103 -19 -113 -12 -6 -120
-10 -280 -10 -223 0 -262 2 -275 16 -12 12 -16 37 -16 105 0 121 5 129 80 129
l60 0 0 480 0 480 -229 0 c-131 0 -232 4 -236 9 -4 7 -8 543 -5 722 0 28 30
30 89 8 75 -29 162 -29 217 -1 51 26 106 89 139 159 23 48 25 63 25 197 l0
146 -60 0 c-75 0 -80 8 -80 129 0 128 -16 121 302 121 220 0 259 -2 272 -16z
m694 -89 c20 -9 47 -25 59 -37 l22 -21 31 26 c50 43 101 53 155 33 56 -22 89
-60 74 -87 -13 -24 -36 -24 -74 1 -48 32 -73 26 -125 -30 -26 -28 -55 -50 -66
-49 -10 0 -32 19 -49 42 -43 58 -74 68 -129 37 -45 -24 -72 -22 -83 7 -5 12 5
26 31 49 53 45 95 53 154 29z"/>
<path d="M1430 3590 l0 -50 215 0 215 0 0 50 0 50 -215 0 -215 0 0 -50z"/>
<path d="M3260 3590 l0 -50 215 0 215 0 0 50 0 50 -215 0 -215 0 0 -50z"/>
<path d="M1570 2995 l0 -465 75 0 75 0 0 465 0 465 -75 0 -75 0 0 -465z"/>
<path d="M3390 2995 l0 -465 80 0 80 0 0 465 0 465 -80 0 -79 0 -1 -465z"/>
<path d="M1438 2959 l-48 -49 0 -190 0 -190 50 0 50 0 0 240 c0 132 -1 239 -2
238 -2 0 -24 -23 -50 -49z"/>
<path d="M3630 2768 l0 -238 50 0 50 0 0 190 0 190 -50 48 -50 48 0 -238z"/>
<path d="M1800 2745 l0 -215 60 0 60 0 0 168 0 167 -60 47 -60 48 0 -215z"/>
<path d="M3258 2912 l-58 -47 0 -167 0 -168 60 0 60 0 0 215 c0 118 -1 215 -2
214 -2 0 -29 -22 -60 -47z"/>
<path d="M1090 2710 l0 -180 115 0 115 0 0 173 0 172 -87 0 c-49 0 -100 3
-115 8 l-28 7 0 -180z"/>
<path d="M3980 2878 c-19 -5 -68 -8 -107 -6 l-73 3 0 -172 0 -173 115 0 115 0
0 180 c0 99 -3 180 -7 179 -5 0 -24 -5 -43 -11z"/>
<path d="M2000 2675 l0 -145 110 0 110 0 0 104 0 104 -67 23 c-38 12 -85 30
-105 40 -21 11 -40 19 -43 19 -3 0 -5 -65 -5 -145z"/>
<path d="M3080 2805 c-14 -8 -60 -26 -102 -40 l-78 -27 0 -104 0 -104 110 0
110 0 0 145 c0 80 -3 145 -7 145 -5 -1 -19 -7 -33 -15z"/>
<path d="M2300 2626 l0 -96 110 0 110 0 0 84 0 83 -77 6 c-43 3 -93 9 -110 13
l-33 7 0 -97z"/>
<path d="M2693 2707 l-93 -10 0 -84 0 -83 110 0 110 0 0 95 c0 84 -2 95 -17
93 -10 -1 -60 -6 -110 -11z"/>
<path d="M1090 2375 l0 -75 1470 0 1470 0 0 75 0 75 -1470 0 -1470 0 0 -75z"/>
<path d="M1570 1750 l0 -480 75 0 75 0 0 480 0 480 -75 0 -75 0 0 -480z"/>
<path d="M3397 2223 c-4 -3 -7 -219 -7 -480 l0 -473 80 0 80 0 0 480 0 480
-73 0 c-41 0 -77 -3 -80 -7z"/>
<path d="M1430 1145 l0 -45 215 0 215 0 0 45 0 45 -215 0 -215 0 0 -45z"/>
<path d="M3260 1145 l0 -45 215 0 215 0 0 45 0 45 -215 0 -215 0 0 -45z"/>
</g>
</svg>
